<svg version="1.1" id="Слой_1" xmlns="http://www.w3.org/2000/svg" xmlns:xlink="http://www.w3.org/1999/xlink" x="0px" y="0px" viewBox="0 0 128 128" enable-background="new 0 0 128 128" xml:space="preserve">
  <g>
    <path fill="#85C559" d="M87.6,22.4L87.6,22.4c-6.2,6.2-16.2,6.2-22.4,0l-3.7-3.7l0,0c6.2-6.2,16.2-6.2,22.4,0L87.6,22.4z"></path>
    <polygon fill="#FFFFFF" points="64,88.2 104.6,37.5 23.4,37.5 	"></polygon>
    <polygon fill="#D5EEF3" points="96.1,48 31.9,48 64,88.2 	"></polygon>
    <circle fill="#F26D6F" cx="64.4" cy="56.1" r="10.5"></circle>
    <path opacity="0.1" d="M75,56.1c0,5.8-4.7,10.5-10.5,10.5V45.5C70.2,45.5,75,50.3,75,56.1z"></path>
    <path fill="#454B54" d="M106.9,40c0.7-0.9,0.9-2.1,0.4-3.2c-0.5-1-1.6-1.7-2.7-1.7H23.4c-1.2,0-2.2,0.7-2.7,1.7
      c-0.5,1-0.4,2.3,0.4,3.2L61,89.9V111H43.7c-1.7,0-3,1.3-3,3s1.3,3,3,3h40.6c1.7,0,3-1.3,3-3s-1.3-3-3-3H67V89.9L106.9,40z
      M98.3,41.1L64,84.1L29.7,41.1H98.3z"></path>
    <path fill="#454B54" d="M62.7,24.5c3.5,3.5,8.1,5.4,13,5.5c-0.4,1.1-0.1,2.3,0.8,3.2c0.6,0.5,1.3,0.8,2,0.8c0.8,0,1.6-0.3,2.2-1
      c5.8-6.5,13.3-11.3,21.5-14.1c1.6-0.5,2.4-2.2,1.9-3.8c-0.5-1.6-2.2-2.4-3.8-1.9c-4.3,1.4-8.5,3.4-12.3,5.9l-2.5-2.5
      C82,13,77.3,11,72.3,11s-9.8,2-13.3,5.5c-0.6,0.6-0.9,1.3-0.9,2.1c0,0.8,0.3,1.6,0.9,2.1L62.7,24.5z M72.3,17
      c3.4,0,6.6,1.3,9.1,3.8l1.4,1.4c-2,1.2-4.3,1.9-6.7,1.9c-3.4,0-6.6-1.3-9.1-3.8l-1.4-1.4C67.6,17.7,69.9,17,72.3,17z"></path>
  </g>
</svg>