<?xml version="1.0" standalone="no"?>
<!DOCTYPE svg PUBLIC "-//W3C//DTD SVG 20010904//EN"
 "http://www.w3.org/TR/2001/REC-SVG-20010904/DTD/svg10.dtd">
<svg version="1.0" xmlns="http://www.w3.org/2000/svg"
 width="700.000000pt" height="700.000000pt" viewBox="0 0 700.000000 700.000000"
 preserveAspectRatio="xMidYMid meet">
<metadata>
Created by potrace 1.11, written by Peter Selinger 2001-2013
</metadata>
<g transform="translate(0.000000,700.000000) scale(0.100000,-0.100000)"
fill="#000000" stroke="none">
<path d="M3773 6386 c-199 -38 -392 -136 -525 -266 -82 -80 -96 -160 -40 -237
39 -54 308 -309 367 -348 154 -101 370 -175 510 -175 l45 0 0 -46 c0 -116 92
-191 207 -169 31 5 55 24 128 99 178 184 329 307 538 438 128 81 365 198 511
252 117 44 148 64 170 110 49 104 -13 228 -121 243 -89 12 -423 -128 -683
-286 l-65 -39 -105 102 c-59 56 -136 123 -172 149 -87 63 -233 130 -338 158
-107 28 -320 35 -427 15z"/>
<path d="M1196 5057 c-55 -31 -90 -97 -82 -155 3 -24 10 -51 15 -60 5 -9 502
-634 1105 -1387 l1096 -1370 0 -577 0 -577 -504 -3 c-491 -3 -505 -4 -533 -24
-35 -25 -73 -98 -73 -139 0 -50 40 -117 85 -142 l40 -23 1155 0 1155 0 40 23
c45 25 85 92 85 142 0 41 -38 114 -73 139 -28 20 -42 21 -533 24 l-504 3 0
577 0 577 1094 1367 c663 829 1100 1384 1111 1410 29 74 -1 155 -73 196 l-40
22 -2263 0 -2264 0 -39 -23z m4164 -312 c0 -3 -66 -88 -147 -190 l-146 -185
-581 0 -581 1 -60 39 c-199 133 -438 133 -644 0 l-62 -40 -603 0 -603 0 -146
185 c-81 102 -147 187 -147 190 0 3 837 5 1860 5 1023 0 1860 -2 1860 -5z"/>
</g>
</svg>
